<?xml version="1.0" standalone="no"?>
<!DOCTYPE svg PUBLIC "-//W3C//DTD SVG 20010904//EN"
 "http://www.w3.org/TR/2001/REC-SVG-20010904/DTD/svg10.dtd">
<svg version="1.0" xmlns="http://www.w3.org/2000/svg"
 width="140.000000pt" height="56.000000pt" viewBox="0 0 140.000000 56.000000"
 preserveAspectRatio="xMidYMid meet">
<metadata>
Created by potrace 1.16, written by Peter Selinger 2001-2019
</metadata>
<g transform="translate(0.000000,56.000000) scale(0.100000,-0.100000)"
fill="#000000" stroke="none">
<path d="M235 440 c-16 -6 -13 -8 15 -11 34 -4 35 -6 36 -47 l1 -42 -4 40 c-4
37 -7 40 -34 40 l-29 0 0 -91 c0 -58 -4 -88 -10 -84 -6 4 -7 12 -4 18 4 7 4 9
-1 5 -4 -4 -14 -3 -21 3 -9 7 -17 4 -28 -13 -12 -17 -16 -19 -16 -6 0 9 5 18
12 20 13 5 13 69 1 123 l-7 30 -7 -35 -6 -35 -2 33 c0 17 -5 32 -11 32 -20 0
-30 -41 -32 -127 -1 -73 -2 -80 -8 -43 -7 42 -7 40 -8 -25 -1 -44 3 -76 10
-83 17 -17 63 -15 78 3 11 13 16 13 42 -1 69 -36 108 -25 108 30 l0 31 18 -35
c15 -31 23 -36 72 -44 82 -13 123 7 140 68 18 65 27 65 26 -2 l-1 -57 37 -3
c22 -2 41 2 49 11 12 12 17 11 40 -5 37 -28 103 -21 107 10 7 46 19 20 16 -33
-4 -49 -2 -56 21 -71 22 -14 30 -15 50 -4 25 14 33 44 15 55 -5 3 -10 -1 -10
-9 0 -18 -38 -32 -51 -19 -6 6 -1 9 13 9 16 -1 23 4 22 17 -1 9 1 17 5 17 28
0 70 281 48 318 -10 15 -81 16 -109 1 -14 -8 -27 -8 -42 -1 -40 19 -54 21 -73
7 -10 -7 -18 -22 -19 -32 -1 -10 -2 -35 -3 -55 -2 -57 -18 -46 -27 20 -9 55
-10 57 -38 54 -17 -2 -25 1 -21 7 9 16 -7 13 -31 -4 -19 -12 -24 -12 -40 0
-13 9 -41 14 -84 13 l-65 -1 60 -7 c54 -6 50 -7 -35 -7 -52 0 -99 3 -105 7
-20 14 -40 17 -60 10z"/>
</g>
</svg>
