<?xml version="1.0" standalone="no"?>
<!DOCTYPE svg PUBLIC "-//W3C//DTD SVG 20010904//EN"
 "http://www.w3.org/TR/2001/REC-SVG-20010904/DTD/svg10.dtd">
<svg version="1.0" xmlns="http://www.w3.org/2000/svg"
 width="140.000000pt" height="56.000000pt" viewBox="0 0 140.000000 56.000000"
 preserveAspectRatio="xMidYMid meet">
<metadata>
Created by potrace 1.16, written by Peter Selinger 2001-2019
</metadata>
<g transform="translate(0.000000,56.000000) scale(0.100000,-0.100000)"
fill="#000000" stroke="none">
<path d="M266 430 c17 -7 22 -19 26 -72 3 -35 3 -98 0 -141 l-5 -77 -33 0
c-26 0 -39 7 -56 30 -26 36 -30 37 -43 8 -6 -14 -22 -26 -40 -29 -29 -6 -29
-7 8 -8 25 -1 40 4 43 14 5 12 10 11 33 -6 20 -14 39 -19 67 -17 l39 3 4 50 3
50 12 -45 c10 -40 15 -46 51 -58 44 -15 117 -8 133 11 5 7 17 35 25 62 l15 50
1 -52 c1 -42 5 -54 22 -63 33 -18 73 -4 86 30 14 36 1 40 -15 5 -9 -20 -18
-25 -44 -24 -31 2 -31 2 -5 6 18 3 33 15 43 36 l17 31 29 -37 c22 -27 38 -37
59 -37 l28 0 4 135 3 135 -1 -137 0 -138 -32 -3 c-22 -2 -37 3 -52 19 -12 13
-21 18 -21 12 0 -25 32 -43 76 -43 49 0 51 3 57 100 l3 55 2 -63 c1 -35 7 -73
13 -84 8 -14 8 -23 0 -31 -27 -27 3 -67 43 -60 34 7 53 30 38 45 -9 9 -12 8
-12 -4 0 -19 -38 -34 -51 -21 -6 6 -1 9 12 9 12 -1 24 5 27 13 3 10 -2 13 -21
9 -15 -3 -24 -1 -21 3 3 5 17 10 32 10 19 1 22 3 8 6 -17 4 -16 6 5 17 21 10
25 23 37 111 7 55 11 118 10 140 -2 22 -9 -18 -17 -90 -7 -72 -18 -136 -24
-143 -5 -6 -20 -12 -33 -12 -19 0 -24 5 -23 23 1 16 2 18 6 5 7 -26 42 -23 47
5 6 26 26 208 26 232 0 13 -9 16 -42 13 l-43 -3 -6 -50 -6 -50 -1 52 c-2 58
-2 58 78 66 30 3 29 4 -10 5 -27 1 -54 -4 -67 -13 -12 -8 -24 -11 -27 -7 -7
12 -69 2 -78 -12 -5 -7 -8 -5 -8 6 0 9 6 18 13 21 7 2 6 3 -3 3 -11 -1 -17
-19 -23 -64 -6 -39 -13 -62 -22 -62 -14 0 -28 70 -19 94 3 9 2 16 -2 17 -5 0
-26 2 -46 4 -31 3 -38 0 -44 -18 l-7 -22 -8 22 c-7 20 -13 22 -81 17 -101 -7
-118 -12 -119 -32 0 -13 -2 -13 -6 -3 -3 8 2 20 11 27 10 7 13 15 7 18 -5 3
-16 0 -24 -9 -13 -13 -16 -13 -27 0 -7 8 -22 15 -34 14 l-21 0 21 -9z"/>
<path d="M220 329 c0 -58 -4 -88 -10 -84 -6 4 -7 12 -4 18 4 7 4 9 -1 5 -4 -4
-14 -3 -21 3 -9 7 -16 4 -27 -11 -13 -19 -15 -18 -21 26 -3 26 -6 64 -6 85 0
28 -4 39 -15 39 -8 0 -16 -7 -16 -15 -1 -8 -3 -19 -4 -25 -1 -5 -4 -45 -5 -87
-3 -68 -4 -72 -9 -33 -5 38 -7 41 -13 20 -3 -14 -2 -47 2 -75 4 -27 8 -45 9
-39 0 6 14 9 29 6 24 -3 31 1 42 27 7 17 15 31 19 31 3 0 16 -16 29 -35 17
-27 29 -35 52 -35 l30 0 0 135 0 135 -30 0 -30 0 0 -91z"/>
</g>
</svg>
