<?xml version="1.0" standalone="no"?>
<!DOCTYPE svg PUBLIC "-//W3C//DTD SVG 20010904//EN"
 "http://www.w3.org/TR/2001/REC-SVG-20010904/DTD/svg10.dtd">
<svg version="1.0" xmlns="http://www.w3.org/2000/svg"
 width="140.000000pt" height="56.000000pt" viewBox="0 0 140.000000 56.000000"
 preserveAspectRatio="xMidYMid meet">

<g transform="translate(0.000000,56.000000) scale(0.100000,-0.100000)"
fill="#000000" stroke="none">
<path d="M0 280 l0 -280 700 0 700 0 0 280 0 280 -700 0 -700 0 0 -280z m293
139 c16 -25 0 -68 -28 -75 -16 -4 -26 -15 -30 -35 -5 -20 -13 -29 -26 -29 -15
0 -19 5 -15 18 2 9 8 45 11 80 l7 63 36 -3 c19 -2 39 -10 45 -19z m59 8 c0 -4
-3 -39 -6 -77 -6 -61 -10 -70 -28 -70 -18 0 -19 4 -13 53 11 92 16 108 31 105
8 -2 15 -6 16 -11z m98 -4 c0 -10 -11 -36 -25 -58 -30 -49 -30 -50 -2 -51 16
-1 29 10 49 42 25 41 26 44 8 44 -13 0 -20 7 -20 20 0 17 7 20 40 20 34 0 40
-3 40 -21 0 -11 -11 -37 -25 -57 -24 -36 -24 -37 -5 -44 11 -4 20 -14 20 -22
0 -12 -17 -15 -90 -15 -103 0 -109 7 -65 71 30 44 30 44 5 51 -13 3 -18 10
-14 21 9 24 84 22 84 -1z m184 -35 c10 -90 8 -108 -13 -108 -11 0 -21 5 -23
11 -3 8 -10 8 -25 -2 -31 -19 -38 -6 -24 43 24 80 39 108 59 108 16 0 20 -10
26 -52z"/>
<path d="M246 391 c-4 -7 -5 -15 -2 -18 9 -9 19 4 14 18 -4 11 -6 11 -12 0z"/>
<path d="M591 344 c0 -11 3 -14 6 -6 3 7 2 16 -1 19 -3 4 -6 -2 -5 -13z"/>
</g>
</svg>
